<mxfile host="Electron" agent="Mozilla/5.0 (Windows NT 10.0; Win64; x64) AppleWebKit/537.36 (KHTML, like Gecko) draw.io/24.7.8 Chrome/128.0.6613.36 Electron/32.0.1 Safari/537.36" version="24.7.8">
  <diagram name="Page-1" id="emZ-yDNYXLzX7Z2miODO">
    <mxGraphModel dx="1674" dy="844" grid="1" gridSize="10" guides="1" tooltips="1" connect="1" arrows="1" fold="1" page="1" pageScale="1" pageWidth="850" pageHeight="1100" math="0" shadow="0">
      <root>
        <mxCell id="0" />
        <mxCell id="1" parent="0" />
        <mxCell id="hgdegepGG_S09ZNZa7Rr-3" value="" style="whiteSpace=wrap;html=1;aspect=fixed;fillColor=#000000;" parent="1" vertex="1">
          <mxGeometry width="850" height="850" as="geometry" />
        </mxCell>
        <mxCell id="hgdegepGG_S09ZNZa7Rr-4" value="&lt;font style=&quot;font-size: 18px;&quot;&gt;Back&lt;/font&gt;" style="ellipse;whiteSpace=wrap;html=1;" parent="1" vertex="1">
          <mxGeometry x="10" y="10" width="120" height="80" as="geometry" />
        </mxCell>
        <mxCell id="hgdegepGG_S09ZNZa7Rr-5" value="&lt;font style=&quot;font-size: 24px;&quot;&gt;Leaderboard&lt;/font&gt;" style="rounded=1;whiteSpace=wrap;html=1;strokeColor=#FFFFFF;" parent="1" vertex="1">
          <mxGeometry x="303" y="10" width="245" height="80" as="geometry" />
        </mxCell>
        <mxCell id="q8OM4zRgLjuxLJzhd00i-1" value="&lt;font style=&quot;font-size: 18px;&quot;&gt;Settings&lt;/font&gt;" style="ellipse;whiteSpace=wrap;html=1;" vertex="1" parent="1">
          <mxGeometry x="720" y="10" width="120" height="80" as="geometry" />
        </mxCell>
        <mxCell id="q8OM4zRgLjuxLJzhd00i-3" value="&lt;font style=&quot;font-size: 18px;&quot;&gt;Search bar&lt;/font&gt;" style="rounded=1;whiteSpace=wrap;html=1;" vertex="1" parent="1">
          <mxGeometry x="10" y="130" width="830" height="50" as="geometry" />
        </mxCell>
        <mxCell id="q8OM4zRgLjuxLJzhd00i-9" value="&lt;font style=&quot;font-size: 14px;&quot;&gt;1st player and stats&lt;/font&gt;" style="ellipse;whiteSpace=wrap;html=1;aspect=fixed;" vertex="1" parent="1">
          <mxGeometry x="370" y="220" width="110" height="110" as="geometry" />
        </mxCell>
        <mxCell id="q8OM4zRgLjuxLJzhd00i-10" value="&lt;font style=&quot;font-size: 14px;&quot;&gt;&lt;br&gt;&lt;span style=&quot;color: rgb(0, 0, 0); font-family: Helvetica; font-style: normal; font-variant-ligatures: normal; font-variant-caps: normal; font-weight: 400; letter-spacing: normal; orphans: 2; text-align: center; text-indent: 0px; text-transform: none; widows: 2; word-spacing: 0px; -webkit-text-stroke-width: 0px; white-space: normal; background-color: rgb(251, 251, 251); text-decoration-thickness: initial; text-decoration-style: initial; text-decoration-color: initial; float: none; display: inline !important;&quot;&gt;2nd player and stats&lt;/span&gt;&lt;br&gt;&lt;/font&gt;" style="ellipse;whiteSpace=wrap;html=1;aspect=fixed;" vertex="1" parent="1">
          <mxGeometry x="193" y="280" width="110" height="110" as="geometry" />
        </mxCell>
        <mxCell id="q8OM4zRgLjuxLJzhd00i-11" value="&lt;font style=&quot;font-size: 14px;&quot;&gt;3rd player and stats&lt;/font&gt;" style="ellipse;whiteSpace=wrap;html=1;aspect=fixed;" vertex="1" parent="1">
          <mxGeometry x="548" y="280" width="110" height="110" as="geometry" />
        </mxCell>
        <mxCell id="q8OM4zRgLjuxLJzhd00i-12" value="4th&amp;nbsp;&lt;span style=&quot;font-size: 14px;&quot;&gt;player and stats&lt;/span&gt;" style="rounded=1;whiteSpace=wrap;html=1;" vertex="1" parent="1">
          <mxGeometry x="10" y="460" width="360" height="60" as="geometry" />
        </mxCell>
        <mxCell id="q8OM4zRgLjuxLJzhd00i-13" value="5th&amp;nbsp;&lt;span style=&quot;font-size: 14px;&quot;&gt;player and stats&lt;/span&gt;" style="rounded=1;whiteSpace=wrap;html=1;" vertex="1" parent="1">
          <mxGeometry x="10" y="540" width="360" height="60" as="geometry" />
        </mxCell>
        <mxCell id="q8OM4zRgLjuxLJzhd00i-14" value="6th&amp;nbsp;&lt;span style=&quot;font-size: 14px;&quot;&gt;player and stats&lt;/span&gt;" style="rounded=1;whiteSpace=wrap;html=1;" vertex="1" parent="1">
          <mxGeometry x="10" y="620" width="360" height="60" as="geometry" />
        </mxCell>
        <mxCell id="q8OM4zRgLjuxLJzhd00i-15" value="7th&amp;nbsp;&lt;span style=&quot;font-size: 14px;&quot;&gt;player and stats&lt;/span&gt;" style="rounded=1;whiteSpace=wrap;html=1;" vertex="1" parent="1">
          <mxGeometry x="10" y="700" width="360" height="60" as="geometry" />
        </mxCell>
        <mxCell id="q8OM4zRgLjuxLJzhd00i-16" value="8th&amp;nbsp;&lt;span style=&quot;font-size: 14px;&quot;&gt;player and stats&lt;/span&gt;" style="rounded=1;whiteSpace=wrap;html=1;" vertex="1" parent="1">
          <mxGeometry x="10" y="780" width="360" height="60" as="geometry" />
        </mxCell>
        <mxCell id="q8OM4zRgLjuxLJzhd00i-17" value="9th&amp;nbsp;&lt;span style=&quot;font-size: 14px;&quot;&gt;player and stats&lt;/span&gt;" style="rounded=1;whiteSpace=wrap;html=1;" vertex="1" parent="1">
          <mxGeometry x="480" y="460" width="360" height="60" as="geometry" />
        </mxCell>
        <mxCell id="q8OM4zRgLjuxLJzhd00i-18" value="10th&amp;nbsp;&lt;span style=&quot;font-size: 14px;&quot;&gt;player and stats&lt;/span&gt;" style="rounded=1;whiteSpace=wrap;html=1;" vertex="1" parent="1">
          <mxGeometry x="480" y="540" width="360" height="60" as="geometry" />
        </mxCell>
        <mxCell id="q8OM4zRgLjuxLJzhd00i-21" value="11th&amp;nbsp;&lt;span style=&quot;font-size: 14px;&quot;&gt;player and stats&lt;/span&gt;" style="rounded=1;whiteSpace=wrap;html=1;" vertex="1" parent="1">
          <mxGeometry x="480" y="620" width="360" height="60" as="geometry" />
        </mxCell>
        <mxCell id="q8OM4zRgLjuxLJzhd00i-22" value="12th&amp;nbsp;&lt;span style=&quot;font-size: 14px;&quot;&gt;player and stats&lt;/span&gt;" style="rounded=1;whiteSpace=wrap;html=1;" vertex="1" parent="1">
          <mxGeometry x="480" y="700" width="360" height="60" as="geometry" />
        </mxCell>
        <mxCell id="q8OM4zRgLjuxLJzhd00i-23" value="13th&amp;nbsp;&lt;span style=&quot;font-size: 14px;&quot;&gt;player and stats&lt;/span&gt;" style="rounded=1;whiteSpace=wrap;html=1;" vertex="1" parent="1">
          <mxGeometry x="480" y="780" width="360" height="60" as="geometry" />
        </mxCell>
      </root>
    </mxGraphModel>
  </diagram>
</mxfile>
